<?xml version="1.0" standalone="no"?>
<!DOCTYPE svg PUBLIC "-//W3C//DTD SVG 20010904//EN"
 "http://www.w3.org/TR/2001/REC-SVG-20010904/DTD/svg10.dtd">
<svg version="1.0" xmlns="http://www.w3.org/2000/svg"
 width="32.000000pt" height="32.000000pt" viewBox="0 0 32.000000 32.000000"
 preserveAspectRatio="xMidYMid meet">

<g transform="translate(0.000000,32.000000) scale(0.100000,-0.100000)"
fill="#000000" stroke="none">
<path d="M122 293 c-13 -9 -45 -22 -70 -28 -55 -14 -59 -26 -43 -100 14 -61
57 -118 112 -146 37 -18 41 -19 72 -3 74 38 119 107 121 187 l1 49 -47 12
c-25 7 -58 20 -72 29 -31 21 -44 21 -74 0z m69 -69 c17 -21 0 -48 -33 -52 -28
-3 -42 18 -33 49 8 23 48 25 66 3z m27 -97 c25 -20 10 -27 -58 -27 -69 0 -81
5 -59 27 14 14 99 14 117 0z"/>
</g>
</svg>
