<?xml version="1.0" standalone="no"?>
<!DOCTYPE svg PUBLIC "-//W3C//DTD SVG 20010904//EN"
 "http://www.w3.org/TR/2001/REC-SVG-20010904/DTD/svg10.dtd">
<svg version="1.0" xmlns="http://www.w3.org/2000/svg"
 width="128.000000pt" height="128.000000pt" viewBox="0 0 128.000000 128.000000"
 preserveAspectRatio="xMidYMid meet">

<g transform="translate(0.000000,128.000000) scale(0.100000,-0.100000)"
fill="#000000" stroke="none">
<path d="M308 1144 c-26 -26 -30 -27 -148 -28 -158 -1 -160 -3 -160 -150 0
-94 2 -104 23 -124 21 -20 34 -22 130 -22 125 0 147 12 147 78 0 31 10 50 65
115 68 82 75 99 49 135 -22 32 -72 30 -106 -4z m82 -31 c0 -19 -168 -213 -185
-213 -20 0 -87 86 -83 106 5 28 26 28 51 0 14 -14 29 -26 34 -26 6 0 37 30 69
68 32 37 64 72 72 79 17 14 42 6 42 -14z m-150 -40 c0 -5 -7 -17 -15 -27 -14
-18 -16 -18 -33 -3 -27 25 -78 22 -96 -5 -9 -12 -16 -30 -16 -39 0 -17 62
-105 90 -126 18 -15 57 -17 65 -3 3 6 12 10 18 10 7 0 3 -7 -7 -15 -23 -18
-157 -21 -187 -5 -17 10 -19 22 -19 110 0 69 4 100 13 103 20 9 187 8 187 0z"/>
<path d="M504 1108 c-33 -16 -44 -51 -44 -147 0 -74 3 -93 21 -115 l20 -26
368 0 368 0 21 23 c20 21 22 34 22 124 0 151 5 148 -206 148 -153 0 -169 -2
-172 -17 -3 -17 9 -18 151 -18 86 0 162 -3 171 -6 13 -5 16 -24 16 -105 0 -87
-2 -99 -19 -109 -27 -14 -675 -14 -702 0 -17 9 -19 22 -19 103 0 59 4 97 12
105 8 8 61 12 171 12 146 0 158 1 155 18 -3 15 -19 17 -158 19 -92 1 -164 -2
-176 -9z"/>
<path d="M581 981 c-41 -26 7 -31 289 -31 282 0 330 5 289 31 -8 5 -138 9
-289 9 -151 0 -281 -4 -289 -9z"/>
<path d="M313 788 l-32 -31 -119 2 c-119 2 -119 2 -141 -25 -18 -23 -21 -40
-21 -126 0 -92 2 -101 25 -123 22 -23 31 -25 123 -25 85 0 103 3 126 21 20 16
26 29 26 61 0 35 8 50 65 116 69 81 77 105 45 140 -29 31 -60 27 -97 -10z m75
-28 c3 -18 -165 -220 -183 -220 -15 0 -85 88 -85 107 0 27 31 26 61 -3 25 -24
31 -26 42 -14 8 8 40 46 72 83 56 66 86 81 93 47z m-158 -65 l-24 -25 -21 20
c-12 11 -30 20 -41 20 -27 0 -64 -36 -64 -62 0 -27 74 -126 103 -138 15 -6 -3
-9 -58 -7 l-80 2 -3 94 c-1 52 -1 100 2 108 4 10 32 13 107 13 l102 0 -23 -25z
m25 -184 c-3 -6 -16 -11 -28 -11 -21 0 -21 1 3 13 27 15 36 14 25 -2z"/>
<path d="M480 733 c-20 -25 -21 -38 -18 -131 5 -154 -29 -142 410 -142 l359 0
24 25 c23 22 25 31 25 123 0 85 -3 103 -21 126 l-20 26 -369 0 -369 0 -21 -27z
m755 -123 l0 -105 -365 0 -365 0 -3 94 c-1 52 0 101 2 108 5 11 73 13 368 11
l363 -3 0 -105z"/>
<path d="M575 619 c-4 -6 -3 -15 2 -20 5 -5 130 -8 299 -7 249 3 289 5 289 18
0 13 -40 15 -292 18 -204 2 -294 -1 -298 -9z"/>
<path d="M22 394 c-21 -14 -22 -22 -22 -138 0 -103 3 -126 17 -137 26 -22 227
-25 258 -5 24 16 25 20 25 141 0 156 1 155 -150 155 -79 0 -111 -4 -128 -16z
m238 -139 l0 -115 -110 0 -110 0 0 115 0 115 110 0 110 0 0 -115z"/>
<path d="M509 399 c-37 -14 -49 -48 -49 -144 0 -148 16 -158 235 -153 124 3
140 5 143 21 3 16 -9 17 -155 17 -110 0 -163 4 -171 12 -16 16 -16 190 0 206
17 17 699 17 716 0 8 -8 12 -46 12 -103 0 -57 -4 -95 -12 -103 -8 -8 -61 -12
-171 -12 -146 0 -158 -1 -155 -17 3 -16 19 -18 138 -21 230 -5 240 1 240 151
0 54 -4 107 -10 117 -5 10 -24 23 -41 29 -40 14 -682 14 -720 0z"/>
<path d="M577 264 c-20 -20 31 -24 299 -24 255 0 294 2 294 15 0 13 -39 15
-293 15 -162 0 -297 -3 -300 -6z"/>
</g>
</svg>
