<?xml version="1.0" standalone="no"?>
<!DOCTYPE svg PUBLIC "-//W3C//DTD SVG 20010904//EN"
 "http://www.w3.org/TR/2001/REC-SVG-20010904/DTD/svg10.dtd">
<svg version="1.0" xmlns="http://www.w3.org/2000/svg"
 width="128.000000pt" height="128.000000pt" viewBox="0 0 128.000000 128.000000"
 preserveAspectRatio="xMidYMid meet">

<g transform="translate(0.000000,128.000000) scale(0.100000,-0.100000)"
fill="#000000" stroke="none">
<path d="M95 1266 c-37 -16 -70 -52 -84 -89 -7 -18 -11 -155 -11 -378 0 -390
1 -396 66 -445 35 -27 44 -29 146 -32 l108 -4 0 -147 c0 -101 4 -151 12 -159
17 -17 919 -17 936 0 17 17 17 719 0 736 -17 17 -919 17 -936 0 -8 -8 -12 -63
-12 -180 l0 -168 -95 0 c-88 0 -98 2 -120 25 l-25 24 0 351 0 351 25 24 24 25
229 0 c297 0 275 15 282 -191 4 -130 7 -153 23 -163 12 -8 22 -8 35 0 15 10
17 30 17 171 l0 160 -29 37 c-47 62 -66 66 -328 66 -172 -1 -241 -4 -263 -14z
m1105 -886 l0 -300 -400 0 -400 0 0 300 0 300 400 0 400 0 0 -300z"/>
<path d="M492 228 c-16 -16 -15 -43 2 -57 22 -19 126 -10 140 12 8 12 8 22 0
35 -14 21 -122 30 -142 10z"/>
<path d="M732 228 c-7 -7 -12 -20 -12 -29 0 -35 23 -40 205 -37 157 3 179 5
189 21 8 12 8 22 0 35 -10 15 -32 17 -190 20 -131 2 -183 -1 -192 -10z"/>
<path d="M170 1105 c-8 -10 -11 -44 -9 -105 4 -86 5 -91 37 -122 28 -28 39
-33 82 -33 43 0 54 5 82 33 33 32 33 33 33 129 0 80 -3 97 -18 107 -12 8 -22
8 -35 0 -13 -9 -18 -30 -22 -94 -4 -64 -9 -85 -22 -94 -13 -8 -23 -8 -35 0
-14 9 -19 28 -21 90 -2 43 -8 84 -14 91 -14 17 -43 16 -58 -2z"/>
<path d="M491 1106 c-8 -9 -11 -53 -9 -131 3 -99 6 -120 21 -129 12 -8 22 -8
35 0 14 9 17 30 20 129 3 121 -3 145 -38 145 -10 0 -23 -6 -29 -14z"/>
</g>
</svg>
